<?xml version="1.0" encoding="utf-8"?>
<!-- Generator: Adobe Illustrator 19.1.1, SVG Export Plug-In . SVG Version: 6.00 Build 0)  -->
<svg version="1.1" id="Layer_1" xmlns="http://www.w3.org/2000/svg" xmlns:xlink="http://www.w3.org/1999/xlink" x="0px" y="0px"
	 viewBox="-279 402.9 36 36" style="enable-background:new -279 402.9 36 36;" xml:space="preserve">
<style type="text/css">
	.st0{fill:#333333;}
</style>
<g id="search_1_">
	<g id="search">
		<path class="st0" d="M-243.5,434.1l-8.9-8.9c1.4-2.2,2.3-4.9,2.3-7.8c0-7.9-6.4-14.3-14.3-14.3c-7.9,0-14.3,6.4-14.3,14.3
			c0,7.9,6.4,14.3,14.3,14.3c2.9,0,5.5-0.8,7.8-2.3l8.9,8.9c0.3,0.3,0.8,0.3,1.1,0l3.2-3.2C-243.2,434.9-243.2,434.4-243.5,434.1z
			 M-274.2,417.5c0-5.4,4.4-9.8,9.8-9.8c5.4,0,9.8,4.4,9.8,9.8c0,5.4-4.4,9.8-9.8,9.8C-269.8,427.3-274.2,422.9-274.2,417.5z"/>
	</g>
</g>
</svg>
