<?xml version="1.0" encoding="utf-8"?>
<!-- Generator: Adobe Illustrator 19.1.1, SVG Export Plug-In . SVG Version: 6.00 Build 0)  -->
<svg version="1.1" id="svg2" xmlns:svg="http://www.w3.org/2000/svg"
	 xmlns="http://www.w3.org/2000/svg" xmlns:xlink="http://www.w3.org/1999/xlink" x="0px" y="0px"
	 viewBox="561.9 -92.2 616.3 554.5" style="enable-background:new 561.9 -92.2 616.3 554.5;" xml:space="preserve">
<style type="text/css">
	.st0{fill:#FFFFFF;stroke:#404040;stroke-width:2;stroke-linecap:round;stroke-linejoin:round;}
	.st1{fill:#FFFFFF;stroke:#000000;stroke-width:7;}
	.st2{stroke:#000000;stroke-width:5;}
</style>
<g id="g3674" transform="matrix(1.5,0,0,1.5,109.02942,-468.01519)">
	<path id="path3586" class="st0" d="M387.7,280.1c7.5-12.5,25-27.5,37.5-27.5l275,155c5,5,17.5,37.5,7.5,50l-272.5,160
		c-7.5,2.5-40,0-50-25L387.7,280.1z"/>
	<g id="g3515" transform="matrix(0.1910977,-0.3317217,0.1910977,0.3317217,152.64427,500.07482)">
		<path id="path3491" class="st1" d="M537.3,834.2c-37.4,0-68-30.6-68-68l0-414.1c0-37.4,30.6-68,68-68l414.1,0
			c37.4,0,68,30.6,68,68l0,414.1c0,37.4-30.6,68-68,68L537.3,834.2z"/>
		<path id="circle3493" class="st2" d="M744.3,502.1c31.5,0,57.1,25.6,57.1,57.1c0,31.5-25.6,57.1-57.1,57.1
			c-31.5,0-57.1-25.6-57.1-57.1C687.2,527.7,712.8,502.1,744.3,502.1z"/>
	</g>
	<g id="g3558" transform="matrix(-0.3828283,3.653872e-4,0.1917306,-0.3313563,472.998,680.25529)">
		<path id="path3566" class="st1" d="M-208.5,738.5c-37.4,0-68-30.6-68-68l0-414.1c0-37.4,30.6-68,68-68l414.1,0
			c37.4,0,68,30.6,68,68l0,414.1c0,37.4-30.6,68-68,68L-208.5,738.5z"/>
		<path id="circle3560" class="st2" d="M-163,567.9c31.5,0,57.1,25.6,57.1,57.1s-25.6,57.1-57.1,57.1s-57.1-25.6-57.1-57.1
			C-220.1,593.4-194.5,567.9-163,567.9z"/>
		<path id="circle3562" class="st2" d="M160,567.9c31.5,0,57.1,25.6,57.1,57.1c0,31.5-25.6,57.1-57.1,57.1
			c-31.5,0-57.1-25.6-57.1-57.1S128.4,567.9,160,567.9z"/>
		<path id="circle3564" class="st2" d="M160,244.9c31.5,0,57.1,25.6,57.1,57.1s-25.6,57.1-57.1,57.1c-31.5,0-57.1-25.6-57.1-57.1
			S128.4,244.9,160,244.9z"/>
		<path id="circle3568" class="st2" d="M-1.5,406.4c31.5,0,57.1,25.6,57.1,57.1S30,520.6-1.5,520.6c-31.5,0-57.1-25.6-57.1-57.1
			S-33.1,406.4-1.5,406.4z"/>
		<path id="circle3570" class="st2" d="M-163,244.9c31.5,0,57.1,25.6,57.1,57.1s-25.6,57.1-57.1,57.1c-31.5,0-57.1-25.6-57.1-57.1
			C-220.1,270.5-194.5,244.9-163,244.9z"/>
	</g>
	<g id="g3572" transform="matrix(0.1917306,0.3313563,-0.3828283,-3.653872e-4,468.80258,313.31549)">
		<path id="path3580" class="st1" d="M-114.4,87.8c-37.4,0-68-30.6-68-68l0-414.1c0-37.4,30.6-68,68-68l414.1,0
			c37.4,0,68,30.6,68,68l0,414.1c0,37.4-30.6,68-68,68L-114.4,87.8z"/>
		<path id="circle3574" class="st2" d="M-68.8-82.9c31.5,0,57.1,25.6,57.1,57.1c0,31.5-25.6,57.1-57.1,57.1s-57.1-25.6-57.1-57.1
			S-100.4-82.9-68.8-82.9z"/>
		<path id="circle3576" class="st2" d="M254.1-82.9c31.5,0,57.1,25.6,57.1,57.1c0,31.5-25.6,57.1-57.1,57.1
			c-31.5,0-57.1-25.6-57.1-57.1C197-57.3,222.6-82.9,254.1-82.9z"/>
		<path id="circle3578" class="st2" d="M254.1-405.8c31.5,0,57.1,25.6,57.1,57.1s-25.6,57.1-57.1,57.1c-31.5,0-57.1-25.6-57.1-57.1
			S222.6-405.8,254.1-405.8z"/>
		<path id="circle3584" class="st2" d="M-68.8-405.8c31.5,0,57.1,25.6,57.1,57.1s-25.6,57.1-57.1,57.1c-31.5,0-57.1-25.6-57.1-57.1
			C-125.9-380.3-100.4-405.8-68.8-405.8z"/>
	</g>
</g>
</svg>
